<svg id="Слой_1" data-name="Слой 1" xmlns="http://www.w3.org/2000/svg" viewBox="0 0 150 190"><defs><style>.cls-1{fill-rule:evenodd;}</style></defs><title>Монтажная область 46</title><path class="cls-1" d="M106.93,133.77l4.62,9.22c-14.91,7-63.1,6.31-74-.92L44,131.93c-6.42-16.31-5.75-48.58,0-57.17L38.45,64.61c9.6-5.54,64.27-5.38,74,.92L106,74.76C111.28,83.75,112,119.15,106.93,133.77ZM96.87,82.54C83.82,79.88,74.2,85,73,94.5c-1.65-6-8.35-9.09-17.21-7.29,1.75,8.94,6.91,14.81,15.36,12,1.26,4.87-1.51,11.61,1.47,17.15l-2.1.91L67,112.05l-2.19.88L61,117l-6.36,2.25-2.33,5.09,4.37,4.06,2.85,0,8.32,3.34,3.68-1,10.1,1.7,6.57-3.83,3.74.48,5.35-4.1-2.45-3.73L89,119.75l-4.84-5.2-6.89-2.82c-1.54-4.15-2.63-9.2-1.82-12.86C87.27,103,94.46,94.9,96.87,82.54Z"/></svg>